<svg width="20" height="23" viewBox="0 0 20 23" fill="none" xmlns="http://www.w3.org/2000/svg">
<path d="M11.4314 0.589267C11.0381 0.209876 10.528 0 9.99929 0C9.47054 0 8.96046 0.209876 8.56714 0.589267L0.71 8.16892C0.486604 8.3846 0.307949 8.6483 0.185632 8.94291C0.0633145 9.23753 6.87969e-05 9.55646 0 9.87901V20.6994C0 21.3096 0.225765 21.8947 0.627628 22.3262C1.02949 22.7576 1.57454 23 2.14286 23H5C5.56832 23 6.11337 22.7576 6.51523 22.3262C6.91709 21.8947 7.14286 21.3096 7.14286 20.6994V14.5645C7.14286 14.3611 7.21811 14.1661 7.35207 14.0223C7.48602 13.8785 7.6677 13.7977 7.85714 13.7977H12.1429C12.3323 13.7977 12.514 13.8785 12.6479 14.0223C12.7819 14.1661 12.8571 14.3611 12.8571 14.5645V20.6994C12.8571 21.3096 13.0829 21.8947 13.4848 22.3262C13.8866 22.7576 14.4317 23 15 23H17.8571C18.4255 23 18.9705 22.7576 19.3724 22.3262C19.7742 21.8947 20 21.3096 20 20.6994V9.87901C19.9999 9.55646 19.9367 9.23753 19.8144 8.94291C19.6921 8.6483 19.5134 8.3846 19.29 8.16892L11.4329 0.589267H11.4314Z" fill="white"/>
</svg>
