<svg width="12" height="12" viewBox="0 0 12 12" fill="none" xmlns="http://www.w3.org/2000/svg">
<path d="M0.80394 6.89789L0.19377 6.30331C-0.06459 6.05156 -0.06459 5.64446 0.19377 5.39538L5.53413 0.188818C5.79249 -0.0629394 6.21026 -0.0629394 6.46587 0.188818L11.8062 5.3927C12.0646 5.64446 12.0646 6.05156 11.8062 6.30064L11.1961 6.89521C10.935 7.14965 10.5089 7.14429 10.2533 6.8845L7.10078 3.65986V11.3572C7.10078 11.7134 6.80669 12 6.44114 12H5.56161C5.19606 12 4.90197 11.7134 4.90197 11.3572V3.65986L1.74668 6.88718C1.49107 7.14965 1.06505 7.155 0.80394 6.89789Z" fill="#F98F78"/>
</svg>
