<svg width="21" height="20" viewBox="0 0 21 20" fill="none" xmlns="http://www.w3.org/2000/svg">
<path d="M12.0547 2.64015L12.0551 2.63967C13.799 0.681237 16.5011 0.449391 18.2814 2.10047C20.4476 4.11317 20.5738 7.78545 18.6167 9.98366L18.6165 9.98387L10.6803 18.9032C10.6803 18.9032 10.6802 18.9033 10.6802 18.9033C10.6084 18.9839 10.5413 19 10.4983 19C10.4552 19 10.3882 18.9839 10.3163 18.9034C10.3163 18.9033 10.3162 18.9032 10.3162 18.9032L2.38037 9.98432C0.426685 7.78597 0.552986 4.11323 2.71923 2.10047C4.49993 0.449027 7.20565 0.681856 8.94481 2.63893L8.9459 2.64015L9.7539 3.54638L10.5003 4.38354L11.2467 3.54639L12.0547 2.64015Z" stroke="white" stroke-width="2"/>
</svg>
