<svg width="12" height="12" viewBox="0 0 12 12" fill="none" xmlns="http://www.w3.org/2000/svg">
<path fill-rule="evenodd" clip-rule="evenodd" d="M11.4 10.8C11.7314 10.8 12 11.0686 12 11.4C12 11.7314 11.7314 12 11.4 12H0.6C0.268629 12 0 11.7314 0 11.4C0 11.0686 0.268629 10.8 0.6 10.8H11.4ZM2.57613 6.77574L9.17613 0.175736C9.39242 -0.0405544 9.73276 -0.0571922 9.96813 0.125823L10.0247 0.175736L11.8247 1.97574C12.0409 2.19203 12.0576 2.53236 11.8746 2.76774L11.8247 2.82426L5.22465 9.42426C5.13089 9.51803 5.00928 9.57756 4.87926 9.5948L4.80039 9.6H3.00039C2.69269 9.6 2.43909 9.36838 2.40443 9.06997L2.40039 9V7.2C2.40039 7.06739 2.44429 6.93931 2.52404 6.83518L2.57613 6.77574ZM9.59961 1.44849L3.59961 7.44849V8.39996H4.55108L10.5511 2.39996L9.59961 1.44849Z" fill="white"/>
<path d="M4.55961 8.4L3.59961 7.43994V8.4H4.55961Z" fill="white"/>
</svg>
