<svg width="16" height="16" viewBox="0 0 16 16" fill="none" xmlns="http://www.w3.org/2000/svg">
<path fill-rule="evenodd" clip-rule="evenodd" d="M1.99999 12L2.07774 11.9955C2.3838 11.96 2.62663 11.7171 2.66218 11.4111L2.66666 11.3333V2.66667H11.3333L11.4111 2.66218C11.7426 2.62367 12 2.34189 12 2C12 1.65811 11.7426 1.37633 11.4111 1.33782L11.3333 1.33333H1.99999L1.92225 1.33782C1.61619 1.37336 1.37336 1.6162 1.33781 1.92225L1.33333 2V11.3333L1.33781 11.4111C1.37336 11.7171 1.61619 11.96 1.92225 11.9955L1.99999 12ZM14 14.6667L14.0777 14.6622C14.3838 14.6266 14.6266 14.3838 14.6622 14.0777L14.6667 14V4.66667L14.6622 4.58892C14.6296 4.30837 14.4228 4.08094 14.1529 4.01761L14.0777 4.00448L14 4H4.66666L4.58891 4.00448C4.28286 4.04003 4.04003 4.28286 4.00448 4.58892L4 4.66667V14L4.00448 14.0777C4.03707 14.3583 4.24383 14.5857 4.5138 14.6491L4.58891 14.6622L4.66666 14.6667H14ZM5.33333 5.33333V13.3333H13.3333V5.33333H5.33333Z" fill="#282828"/>
</svg>
