<svg width="16" height="17" viewBox="0 0 16 17" fill="none" xmlns="http://www.w3.org/2000/svg">
<g clip-path="url(#clip0_1136_1748)">
<path d="M14.822 11.8065L11.5407 10.3065C11.4005 10.2427 11.2448 10.2293 11.0968 10.2682C10.9489 10.3071 10.8168 10.3962 10.7204 10.5221L9.26728 12.4158C6.98674 11.2689 5.15143 9.31122 4.07617 6.87864L5.85156 5.32864C5.96983 5.22604 6.05353 5.08513 6.09001 4.92725C6.12648 4.76937 6.11374 4.60311 6.05371 4.45364L4.64746 0.953642C4.58158 0.79252 4.46505 0.660969 4.31797 0.581673C4.1709 0.502377 4.00249 0.480307 3.8418 0.519267L0.794922 1.26927C0.639991 1.30743 0.501761 1.40048 0.402793 1.53323C0.303826 1.66598 0.249964 1.8306 0.25 2.0002C0.25 10.0158 6.34082 16.5002 13.8437 16.5002C14.0028 16.5003 14.1572 16.4429 14.2817 16.3373C14.4062 16.2318 14.4935 16.0843 14.5293 15.919L15.2324 12.669C15.2687 12.4967 15.2476 12.3164 15.1727 12.1589C15.0978 12.0015 14.9737 11.8769 14.822 11.8065Z" fill="#11CF00"/>
</g>
<defs>
<clipPath id="clip0_1136_1748">
<rect width="15" height="16" fill="white" transform="translate(0.25 0.5)"/>
</clipPath>
</defs>
</svg>
