<svg width="26" height="25" viewBox="0 0 26 25" fill="none" xmlns="http://www.w3.org/2000/svg">
<path d="M19.5581 15.625C18.4203 15.625 17.3745 16.0068 16.5489 16.6453L11.3907 13.5176C11.5435 12.8473 11.5435 12.1527 11.3907 11.4823L16.5489 8.35469C17.3745 8.99321 18.4203 9.375 19.5581 9.375C22.2266 9.375 24.3899 7.27632 24.3899 4.6875C24.3899 2.09868 22.2266 0 19.5581 0C16.8897 0 14.7264 2.09868 14.7264 4.6875C14.7264 5.03701 14.7662 5.37744 14.841 5.70513L9.68279 8.83276C8.85722 8.19429 7.8114 7.8125 6.67353 7.8125C4.00505 7.8125 1.8418 9.91118 1.8418 12.5C1.8418 15.0888 4.00505 17.1875 6.67353 17.1875C7.8114 17.1875 8.85722 16.8057 9.68279 16.1672L14.841 19.2949C14.7647 19.629 14.7263 19.9703 14.7264 20.3125C14.7264 22.9013 16.8897 25 19.5581 25C22.2266 25 24.3899 22.9013 24.3899 20.3125C24.3899 17.7237 22.2266 15.625 19.5581 15.625Z" fill="#2292F9"/>
</svg>
